<svg width="55" height="50" viewBox="0 0 55 50" fill="none" xmlns="http://www.w3.org/2000/svg">
<path d="M53.3388 20.9626L44.3939 29.2043L39.2891 24.4922L43.1472 20.9626C43.4542 20.6321 43.4335 20.1398 43.0995 19.8321C42.766 19.5248 42.2317 19.5057 41.8731 19.7886L38.0062 23.3101L35.4579 20.9541L44.3939 12.7123C44.7442 12.3876 44.7442 11.8632 44.3939 11.5384C44.0414 11.2156 43.4723 11.2156 43.1198 11.5384L33.5335 20.3715C33.3623 20.5276 33.2662 20.7406 33.2662 20.9626C33.2662 21.1845 33.3623 21.3971 33.5335 21.5536L34.8165 22.7272L33.5335 23.9097C32.0168 22.5109 29.6415 22.2882 27.8503 23.3768L27.1457 22.7272C26.2991 21.9492 25.1521 21.5122 23.956 21.5118C23.3909 21.5118 22.8302 21.6077 22.3025 21.7951L20.7575 20.3715L21.399 19.7886C21.5702 19.6321 21.6663 19.4195 21.6663 19.1976C21.6663 18.9756 21.5702 18.7626 21.399 18.6065L12.4272 10.3648C12.073 10.0404 11.5003 10.0425 11.1487 10.3689C10.7967 10.6953 10.7989 11.2225 11.1531 11.5469L19.4565 19.1976L18.815 19.7801L14.2974 23.9011L11.1081 20.9541C10.9383 20.7963 10.7075 20.7077 10.4667 20.7077C10.2258 20.7077 9.9946 20.7963 9.82519 20.9541C9.47445 21.2788 9.47445 21.8032 9.82519 22.128L13.0233 25.0751L11.7403 26.2487L10.5386 27.4726L2.2352 19.7886C2.06579 19.6309 1.83462 19.5423 1.59373 19.5423C1.35285 19.5423 1.12212 19.6309 0.952265 19.7886C0.601971 20.1134 0.601971 20.6378 0.952265 20.9626L9.8971 29.2043C10.0678 29.36 10.2986 29.447 10.5386 29.4458C10.779 29.447 11.0097 29.36 11.1805 29.2043L12.4272 28.0303L13.7009 29.2043C11.9375 30.8299 11.9375 33.4644 13.7009 35.09L15.3999 36.6302C15.5693 36.7879 15.8005 36.8765 16.0414 36.8765C16.2822 36.8765 16.513 36.7879 16.6828 36.6302C17.0331 36.3054 17.0331 35.781 16.6828 35.4562L15.0112 33.9164C14.5008 33.4477 14.214 32.8111 14.214 32.1473C14.214 31.4831 14.5008 30.8465 15.0112 30.3783L15.6439 29.7953L22.0405 23.9011C23.1143 22.9625 24.7978 22.9625 25.8716 23.9011L31.6179 29.1958C31.925 29.5262 31.9043 30.0185 31.5707 30.3262C31.2368 30.6335 30.7025 30.6526 30.3443 30.3697L26.1787 26.532C25.8222 26.2056 25.2456 26.2072 24.8913 26.5361C24.5371 26.8649 24.5388 27.3958 24.8957 27.7222L29.0609 31.5603C29.8356 32.2794 31.0047 32.4965 32.0207 32.1095C33.0372 31.7225 33.699 30.8083 33.6963 29.7953C33.6954 29.1332 33.4095 28.4982 32.9009 28.0303L29.1787 24.6003C30.2163 24.167 31.4357 24.358 32.2594 25.0832L39.9306 32.1514C40.4357 32.6205 40.7185 33.2554 40.7167 33.9164C40.7185 34.5774 40.4357 35.2119 39.9306 35.681L37.3735 38.0371L34.7534 40.4431L32.9009 42.1581L27.7872 46.8698C27.4347 47.1926 26.8656 47.1926 26.5131 46.8698C26.1628 46.5454 26.1628 46.021 26.5131 45.6963L32.3048 40.3846C32.5625 40.1813 32.675 39.8618 32.5956 39.5578C32.5162 39.2537 32.2585 39.0163 31.9285 38.9431C31.5981 38.87 31.2518 38.9732 31.0307 39.211L25.2752 44.5056C24.9169 44.7885 24.3827 44.7694 24.0487 44.4621C23.7152 44.1544 23.6944 43.6621 24.0015 43.3317L29.7478 38.0371C29.919 37.881 30.0151 37.668 30.0151 37.446C30.0151 37.2241 29.919 37.0115 29.7478 36.855C29.3953 36.5322 28.8262 36.5322 28.4737 36.855L22.7181 42.1581C22.366 42.4809 21.7969 42.4809 21.4444 42.1581C21.2733 42.0016 21.1771 41.789 21.1771 41.5671C21.1771 41.3451 21.2733 41.1321 21.4444 40.976L27.1907 35.681C27.3619 35.5249 27.4581 35.3119 27.4581 35.09C27.4581 34.868 27.3619 34.6554 27.1907 34.4989C26.8382 34.1761 26.2691 34.1761 25.9166 34.4989L20.1615 39.8021C19.8072 40.126 19.2346 40.1244 18.883 39.798C18.5309 39.4716 18.5331 38.9439 18.8874 38.62L25.8354 32.2262C26.1897 31.8998 26.1897 31.3705 25.8354 31.0441C25.4812 30.7177 24.9068 30.7177 24.5525 31.0441L17.5683 37.4627C16.5112 38.4379 16.5112 40.0175 17.5683 40.9927C18.035 41.4317 18.6637 41.6935 19.3299 41.7252C19.4106 42.9926 20.5109 44.0028 21.8869 44.0727C21.9633 45.3438 23.0649 46.3584 24.444 46.4288C24.47 47.0548 24.7506 47.6495 25.2302 48.0938C26.0446 48.8425 27.2834 49.0364 28.3202 48.5767L29.0609 49.2677C29.8219 49.9693 30.9619 50.1897 31.9651 49.8287C32.9679 49.4677 33.6438 48.5942 33.687 47.6027C34.3678 47.5836 35.015 47.3243 35.4941 46.8783C35.9635 46.4442 36.2432 45.8666 36.2803 45.2548C37.6598 45.1849 38.761 44.1699 38.8373 42.8987C39.9134 42.8593 40.8614 42.2362 41.2532 41.3122C41.6454 40.3878 41.4063 39.3378 40.6444 38.6366L40.0029 38.0537L41.2859 36.8716C42.1303 36.0916 42.6045 35.0347 42.605 33.9327C42.5838 33.1087 42.2975 32.3091 41.7826 31.6351L43.1472 30.3783L43.7886 30.9693C44.1411 31.2921 44.7103 31.2921 45.0628 30.9693L54.6217 22.1361C54.972 21.8118 54.972 21.287 54.6217 20.9626C54.4523 20.8049 54.2211 20.7163 53.9802 20.7163C53.7394 20.7163 53.5086 20.8049 53.3388 20.9626ZM13.7283 26.8482L19.4838 21.5536L20.7575 22.7272L15.0112 28.0303L13.7283 26.8482ZM31.6179 48.0438C31.2654 48.3665 30.6963 48.3665 30.3443 48.0438L29.7028 47.4527L30.9857 46.2788L31.6179 46.8617C31.7891 47.0178 31.8853 47.2308 31.8853 47.4527C31.8853 47.6747 31.7891 47.8877 31.6179 48.0438ZM34.175 45.6877C33.8225 46.0105 33.2534 46.0105 32.9009 45.6877L32.3048 45.0967L32.9463 44.5056L33.5785 43.9227L34.2204 44.5056C34.3912 44.6621 34.4873 44.8747 34.4873 45.0967C34.4873 45.3186 34.3912 45.5316 34.2204 45.6877H34.175ZM36.732 43.3317C36.3795 43.6544 35.8104 43.6544 35.4579 43.3317L34.8165 42.7406L36.0906 41.5671L36.732 42.1581C37.0823 42.4829 37.0823 43.0073 36.732 43.3317ZM39.2891 40.976C39.1192 41.1333 38.8885 41.2219 38.6476 41.2219C38.4067 41.2219 38.1756 41.1333 38.0062 40.976L37.3735 40.3846L38.6295 39.211L39.271 39.8021C39.6262 40.122 39.6345 40.6468 39.2891 40.976ZM40.5628 30.3783L34.8165 25.0832L36.0906 23.9097L41.8462 29.2043L40.5628 30.3783Z" fill="#FF4B4B"/>
<path d="M17.8488 13.3201H37.7264C38.2254 13.3201 38.63 12.9473 38.63 12.4876V0.832504C38.63 0.372757 38.2254 0 37.7264 0H17.8488C17.3499 0 16.9453 0.372757 16.9453 0.832504V12.4876C16.9453 12.9473 17.3499 13.3201 17.8488 13.3201ZM18.7524 9.99005C19.7503 9.99005 20.5594 10.7356 20.5594 11.6551H18.7524V9.99005ZM36.8229 11.6551H35.0159C35.0159 10.7356 35.825 9.99005 36.8229 9.99005V11.6551ZM36.8229 3.33002C35.825 3.33002 35.0159 2.5845 35.0159 1.66501H36.8229V3.33002ZM36.8229 4.99502V8.32504C34.8266 8.32504 33.2088 9.81607 33.2088 11.6551H22.3665C22.3665 9.81607 20.7482 8.32504 18.7524 8.32504V4.99502C20.7482 4.99502 22.3665 3.504 22.3665 1.66501H33.2088C33.2088 3.504 34.8266 4.99502 36.8229 4.99502ZM18.7524 1.66501H20.5594C20.5594 2.5845 19.7503 3.33002 18.7524 3.33002V1.66501Z" fill="#FF4B4B"/>
<path d="M27.7874 9.99005C29.7833 9.99005 31.4015 8.49902 31.4015 6.66003C31.4015 4.82104 29.7833 3.33002 27.7874 3.33002C25.7911 3.33002 24.1733 4.82104 24.1733 6.66003C24.1733 8.49902 25.7911 9.99005 27.7874 9.99005ZM27.7874 4.99503C28.7853 4.99503 29.5944 5.74054 29.5944 6.66003C29.5944 7.57953 28.7853 8.32504 27.7874 8.32504C26.7894 8.32504 25.9803 7.57953 25.9803 6.66003C25.9803 5.74054 26.7894 4.99503 27.7874 4.99503Z" fill="#FF4B4B"/>
<path d="M35.0157 6.66002C35.0157 7.11977 34.6111 7.49252 34.1121 7.49252C33.6131 7.49252 33.2086 7.11977 33.2086 6.66002C33.2086 6.20027 33.6131 5.82751 34.1121 5.82751C34.6111 5.82751 35.0157 6.20027 35.0157 6.66002Z" fill="#FF4B4B"/>
<path d="M22.3663 6.66002C22.3663 7.11977 21.9617 7.49252 21.4628 7.49252C20.9638 7.49252 20.5592 7.11977 20.5592 6.66002C20.5592 6.20027 20.9638 5.82751 21.4628 5.82751C21.9617 5.82751 22.3663 6.20027 22.3663 6.66002Z" fill="#FF4B4B"/>
<path d="M54.7398 5.36978L51.1257 0.374755C50.9576 0.144272 50.6766 0.00646973 50.3757 0.00646973C50.0748 0.00646973 49.7934 0.144272 49.6257 0.374755L46.0116 5.36978C45.9128 5.50514 45.8594 5.66449 45.8581 5.82749V9.15751C45.8581 9.61726 46.2626 9.99001 46.7616 9.99001C47.2606 9.99001 47.6651 9.61726 47.6651 9.15751V6.07708L50.3757 2.33081L53.0863 6.07708V14.985C53.0863 15.4448 53.4909 15.8175 53.9898 15.8175C54.4888 15.8175 54.8933 15.4448 54.8933 14.985V5.82749C54.892 5.66449 54.8386 5.50514 54.7398 5.36978Z" fill="#FF4B4B"/>
<path d="M51.2793 11.655V6.66002C51.2793 6.20027 50.8747 5.82751 50.3758 5.82751C49.8768 5.82751 49.4722 6.20027 49.4722 6.66002V11.655C49.4722 12.1148 49.8768 12.4875 50.3758 12.4875C50.8747 12.4875 51.2793 12.1148 51.2793 11.655Z" fill="#FF4B4B"/>
<path d="M1.5852 7.49256H2.48873V17.4826C2.48873 17.9424 2.89328 18.3151 3.39225 18.3151C3.89122 18.3151 4.29578 17.9424 4.29578 17.4826V6.66006C4.29578 6.20031 3.89122 5.82755 3.39225 5.82755H3.33799L6.10284 2.26462L8.86769 5.82755H8.81342C8.31445 5.82755 7.90989 6.20031 7.90989 6.66006V8.32507C7.90989 8.78481 8.31445 9.15757 8.81342 9.15757C9.31239 9.15757 9.71695 8.78481 9.71695 8.32507V7.49256H10.6205C10.958 7.49094 11.2664 7.31655 11.4203 7.03972C11.5743 6.76331 11.5478 6.43039 11.3524 6.17714L6.83475 0.349612C6.66445 0.133356 6.39269 0.00531006 6.10284 0.00531006C5.81298 0.00531006 5.54078 0.133356 5.37093 0.349612L0.853289 6.17714C0.657407 6.43039 0.631377 6.76331 0.785348 7.03972C0.939318 7.31655 1.2477 7.49094 1.5852 7.49256Z" fill="#FF4B4B"/>
<path d="M6.10277 11.6551V14.1526C6.10277 14.6123 6.50733 14.9851 7.0063 14.9851C7.50527 14.9851 7.90982 14.6123 7.90982 14.1526V11.6551C7.90982 11.1953 7.50527 10.8226 7.0063 10.8226C6.50733 10.8226 6.10277 11.1953 6.10277 11.6551Z" fill="#FF4B4B"/>
</svg>
