<svg width="31" height="30" viewBox="0 0 31 30" fill="none" xmlns="http://www.w3.org/2000/svg">
<path d="M5.08731 26.6568C4.97613 26.5477 4.82183 26.4851 4.66455 26.4851C4.50726 26.4851 4.35296 26.5477 4.24173 26.6568C4.13049 26.7658 4.0665 26.917 4.0665 27.0711C4.0665 27.2252 4.13043 27.3763 4.24173 27.4853C4.35296 27.5943 4.50726 27.657 4.66455 27.657C4.82183 27.657 4.97613 27.5943 5.08731 27.4853C5.19854 27.3763 5.26259 27.2252 5.26259 27.0711C5.26259 26.917 5.1986 26.7658 5.08731 26.6568Z" fill="#FF4B4B"/>
<path d="M28.0795 10.7193C27.9682 10.6102 27.8145 10.5476 27.6567 10.5476C27.4994 10.5476 27.3451 10.6102 27.2338 10.7193C27.1227 10.8283 27.0586 10.9795 27.0586 11.1336C27.0586 11.2877 27.1226 11.4388 27.2338 11.5478C27.3451 11.6568 27.4994 11.7195 27.6567 11.7195C27.8145 11.7195 27.9682 11.6568 28.0795 11.5478C28.1913 11.4388 28.2552 11.2877 28.2552 11.1336C28.2552 10.9795 28.1913 10.8283 28.0795 10.7193Z" fill="#FF4B4B"/>
<path d="M30.4441 0.171625C30.3319 0.0617594 30.1798 0 30.0211 0L15.3095 0.000761738C14.9792 0.000761738 14.7115 0.263151 14.7115 0.586714V2.26236L9.04266 3.75062C8.7236 3.83441 8.53426 4.15569 8.61978 4.46824L11.5578 15.2112L9.01617 17.7014C8.69268 17.2387 8.14954 16.9343 7.53516 16.9343H1.79408C0.804793 16.9343 0 17.7229 0 18.6921V28.2429C0 29.2122 0.804793 30.0008 1.79408 30.0008H7.53522C8.37566 30.0008 9.08267 29.4314 9.27644 28.666L9.98752 29.2735C10.5365 29.7425 11.2398 30.0008 11.9681 30.0008H30.0212C30.3515 30.0008 30.6193 29.7384 30.6193 29.4149V0.585952C30.6191 0.430558 30.5562 0.281491 30.4441 0.171625ZM8.13315 28.243C8.13315 28.566 7.86487 28.8289 7.5351 28.8289H1.79402C1.46426 28.8289 1.19598 28.5661 1.19598 28.243V18.6922C1.19598 18.3691 1.46426 18.1062 1.79402 18.1062H4.06655V24.8561C4.06655 25.1797 4.33435 25.4421 4.66459 25.4421C4.99483 25.4421 5.26264 25.1797 5.26264 24.8561V18.1062H7.53516C7.86493 18.1062 8.13321 18.3691 8.13321 18.6922V28.243H8.13315ZM9.92986 4.73092L14.7115 3.47558V5.64682L14.3107 5.75206C14.1574 5.79231 14.0269 5.89046 13.9475 6.02505C13.8682 6.15965 13.8467 6.31955 13.8878 6.46968C14.1176 7.30999 13.6068 8.17679 12.7492 8.40197C12.5958 8.44228 12.465 8.54061 12.3857 8.67549C12.3065 8.81032 12.2852 8.97052 12.3266 9.12076L14.6577 17.5783H13.4574L12.8389 15.2073C12.8192 15.1318 12.7848 15.0623 12.7387 15.0018L9.92986 4.73092ZM14.7115 8.33394V13.2783L13.6207 9.32104C14.0764 9.09052 14.4493 8.74563 14.7115 8.33394ZM23.3033 28.8289H11.968C11.5287 28.8289 11.1046 28.6731 10.7735 28.3903L9.32925 27.1562V19.0521L11.9402 16.4939L12.4137 18.3092C12.4814 18.5686 12.7199 18.75 12.9931 18.75L24.751 18.7507C25.2127 18.7507 25.5883 19.1187 25.5883 19.571C25.5883 20.0234 25.2127 20.3914 24.751 20.3914H18.7263C18.396 20.3914 18.1282 20.6538 18.1282 20.9773C18.1282 21.3009 18.396 21.5633 18.7263 21.5633H26.6229C27.0846 21.5633 27.4601 21.9313 27.4601 22.3836C27.4601 22.836 27.0846 23.2039 26.6229 23.2039H18.7263C18.396 23.2039 18.1282 23.4663 18.1282 23.7899C18.1282 24.1135 18.396 24.3759 18.7263 24.3759H25.3432C25.8049 24.3759 26.1805 24.7438 26.1805 25.1962C26.1805 25.6485 25.8049 26.0165 25.3432 26.0165H18.7263C18.396 26.0165 18.1282 26.2789 18.1282 26.6025C18.1282 26.926 18.396 27.1884 18.7263 27.1884H23.3033C23.765 27.1884 24.1406 27.5564 24.1406 28.0088C24.1405 28.4609 23.7649 28.8289 23.3033 28.8289ZM29.4232 28.8289H29.4231H25.1555C25.2715 28.5785 25.3366 28.3009 25.3366 28.0085C25.3366 27.7161 25.2715 27.4386 25.1555 27.1882H25.3432C26.4644 27.1882 27.3765 26.2945 27.3765 25.196C27.3765 24.8756 27.2985 24.5728 27.1607 24.3044C28.0216 24.0727 28.6561 23.2995 28.6561 22.3835C28.6561 21.9391 28.5067 21.5283 28.2548 21.1966V13.7703C28.2548 13.4467 27.987 13.1843 27.6567 13.1843C27.3265 13.1843 27.0587 13.4467 27.0587 13.7703V20.438C26.9181 20.4078 26.7724 20.3914 26.6228 20.3914H26.6031C26.7191 20.141 26.7842 19.8634 26.7842 19.571C26.7842 18.4725 25.8721 17.5789 24.7509 17.5789H23.7896C24.8104 17.1499 25.5273 16.1558 25.5273 15.0004C25.5273 13.4541 24.2434 12.1961 22.6652 12.1961C21.0871 12.1961 19.8032 13.4541 19.8032 15.0004C19.8032 16.1558 20.5202 17.1499 21.5409 17.5789H18.2718V6.43745C19.3401 6.20934 20.1832 5.38344 20.4159 4.33663H24.9145C25.1473 5.38344 25.9903 6.20934 27.0586 6.43745V8.25917C27.0586 8.58274 27.3264 8.84513 27.6567 8.84513C27.9869 8.84513 28.2547 8.58274 28.2547 8.25917V5.91431C28.2547 5.59075 27.9869 5.32836 27.6567 5.32836C26.7687 5.32836 26.0465 4.62059 26.0465 3.75068C26.0465 3.42712 25.7787 3.16473 25.4484 3.16473H19.882C19.5518 3.16473 19.284 3.42712 19.284 3.75068C19.284 4.62064 18.5617 5.32836 17.6738 5.32836C17.3436 5.32836 17.0758 5.59075 17.0758 5.91431V17.5788H15.9077V1.17255L29.4232 1.1719V28.8289ZM22.6654 16.6327C21.7467 16.6327 20.9994 15.9005 20.9994 15.0004C20.9994 14.1004 21.7468 13.3681 22.6654 13.3681C23.584 13.3681 24.3313 14.1004 24.3313 15.0004C24.3313 15.9004 23.584 16.6327 22.6654 16.6327Z" fill="#FF4B4B"/>
</svg>
