<svg width="54" height="50" viewBox="0 0 54 50" fill="none" xmlns="http://www.w3.org/2000/svg">
<path d="M46.0888 36.7029L42.8875 39.6525L40.9703 37.8778C40.6158 37.5511 40.0409 37.5511 39.6863 37.8778C39.3317 38.2045 39.3317 38.7342 39.6863 39.0609L42.2455 41.419C42.4151 41.5768 42.6465 41.6655 42.8875 41.6655C43.1286 41.6655 43.3596 41.5768 43.5296 41.419L47.409 37.8778C47.6669 37.6744 47.7795 37.3546 47.7 37.0503C47.6205 36.7456 47.3627 36.508 47.0324 36.4347C46.7021 36.3615 46.355 36.4653 46.1338 36.7029H46.0888Z" fill="#FF4B4B"/>
<path d="M47.409 30.9123V28.3292C47.409 27.8691 47.0041 27.496 46.5047 27.496H43.7918V26.6628C43.7918 25.2824 45.0065 24.1632 46.5047 24.1632C47.0041 24.1632 47.409 23.7901 47.409 23.33C47.409 22.8698 47.0041 22.4968 46.5047 22.4968C44.0077 22.4968 41.9832 24.3621 41.9832 26.6628V27.496H39.2703C38.771 27.496 38.366 27.8691 38.366 28.3292V30.9123C33.7284 32.8708 31.1979 37.5414 32.2855 42.1334C33.3734 46.7258 37.7859 50.0001 42.8875 50.0001C47.9888 50.0001 52.4016 46.7258 53.4896 42.1334C54.5772 37.5414 52.0466 32.8708 47.409 30.9123ZM43.7918 48.3263V47.4931C43.7918 47.033 43.3869 46.6599 42.8875 46.6599C42.3881 46.6599 41.9832 47.033 41.9832 47.4931V48.3263C37.671 47.9455 34.2579 44.8006 33.8446 40.8274H34.7489C35.2483 40.8274 35.6532 40.4543 35.6532 39.9942C35.6532 39.5341 35.2483 39.161 34.7489 39.161H33.8446C34.1854 36.0491 36.3888 33.3753 39.5507 32.237C39.8987 32.1133 40.1283 31.8057 40.1296 31.4619V29.1625H45.5554V31.4619C45.5563 31.8057 45.7859 32.1133 46.1338 32.237C49.3311 33.3505 51.5737 36.0291 51.9305 39.161H51.0262C50.5268 39.161 50.1219 39.5341 50.1219 39.9942C50.1219 40.4543 50.5268 40.8274 51.0262 40.8274H51.9305C51.5172 44.8006 48.104 47.9455 43.7918 48.3263Z" fill="#FF4B4B"/>
<path d="M29.5129 43.327C29.323 43.327 4.907 43.327 4.907 43.327C3.40882 43.327 2.19411 42.2078 2.19411 40.8274V14.1646H49.2175V29.5457C49.2175 30.0058 49.6224 30.3789 50.1218 30.3789C50.6212 30.3789 51.0261 30.0058 51.0261 29.5457V8.33212C51.0261 6.03143 49.0016 4.16606 46.5046 4.16606H44.696V3.33285C44.696 2.87271 44.2911 2.49964 43.7917 2.49964C43.2923 2.49964 42.8874 2.87271 42.8874 3.33285V6.6657C42.8874 7.58598 42.0776 8.33212 41.0789 8.33212C40.0801 8.33212 39.2703 7.58598 39.2703 6.6657V3.33285C39.2703 2.41257 40.0801 1.66642 41.0789 1.66642C41.5782 1.66642 41.9832 1.29335 41.9832 0.833212C41.9832 0.373074 41.5782 0 41.0789 0C39.0813 0 37.4617 1.4923 37.4617 3.33285V4.16606H29.323V3.33285C29.323 2.87271 28.9181 2.49964 28.4187 2.49964C27.9193 2.49964 27.5144 2.87271 27.5144 3.33285V6.6657C27.5144 7.58598 26.7046 8.33212 25.7058 8.33212C24.707 8.33212 23.8972 7.58598 23.8972 6.6657V3.33285C23.8972 2.41257 24.707 1.66642 25.7058 1.66642C26.2052 1.66642 26.6101 1.29335 26.6101 0.833212C26.6101 0.373074 26.2052 0 25.7058 0C23.7082 0 22.0886 1.4923 22.0886 3.33285V4.16606H13.95V3.33285C13.95 2.87271 13.5451 2.49964 13.0457 2.49964C12.5463 2.49964 12.1414 2.87271 12.1414 3.33285V6.6657C12.1414 7.58598 11.3316 8.33212 10.3328 8.33212C9.33399 8.33212 8.52419 7.58598 8.52419 6.6657V3.33285C8.52419 2.41257 9.33399 1.66642 10.3328 1.66642C10.8322 1.66642 11.2371 1.29335 11.2371 0.833212C11.2371 0.373074 10.8322 0 10.3328 0C8.3352 0 6.71559 1.4923 6.71559 3.33285V4.16606H4.907C2.41003 4.16606 0.385521 6.03143 0.385521 8.33212V40.8274C0.385521 43.1281 2.41003 44.9935 4.907 44.9935H25.7058C30.4534 44.9935 30.4534 44.9935 30.4534 44.1603C30.4547 43.9389 30.3602 43.7257 30.1911 43.5687C30.0118 43.4043 29.7659 43.3165 29.5129 43.327ZM4.907 5.83249H6.71559V6.6657C6.71559 8.50625 8.3352 9.99855 10.3328 9.99855C12.3304 9.99855 13.95 8.50625 13.95 6.6657V5.83249H22.0886V6.6657C22.0886 8.50625 23.7082 9.99855 25.7058 9.99855C27.7034 9.99855 29.323 8.50625 29.323 6.6657V5.83249H37.4617V6.6657C37.4617 8.50625 39.0813 9.99855 41.0789 9.99855C43.0764 9.99855 44.696 8.50625 44.696 6.6657V5.83249H46.5046C48.0028 5.83249 49.2175 6.95171 49.2175 8.33212V12.4982H2.19411V8.33212C2.19411 6.95171 3.40882 5.83249 4.907 5.83249Z" fill="#FF4B4B"/>
<path d="M16.6629 17.4975C16.6629 17.0373 16.258 16.6642 15.7586 16.6642H8.52427C8.02487 16.6642 7.61997 17.0373 7.61997 17.4975V24.1632C7.61997 24.6233 8.02487 24.9964 8.52427 24.9964H15.7586C16.258 24.9964 16.6629 24.6233 16.6629 24.1632V17.4975ZM14.8543 23.3299H9.42857V18.3307H14.8543V23.3299Z" fill="#FF4B4B"/>
<path d="M15.7586 29.9956C16.258 29.9956 16.6629 29.6226 16.6629 29.1624C16.6629 28.7023 16.258 28.3292 15.7586 28.3292H8.52427C8.02487 28.3292 7.61997 28.7023 7.61997 29.1624V35.8281C7.61997 36.2883 8.02487 36.6613 8.52427 36.6613H15.7586C16.258 36.6613 16.6629 36.2883 16.6629 35.8281V32.4953C16.6629 32.0351 16.258 31.6621 15.7586 31.6621C15.2592 31.6621 14.8543 32.0351 14.8543 32.4953V34.9949H9.42857V29.9956H15.7586Z" fill="#FF4B4B"/>
<path d="M21.1845 28.3292C20.6851 28.3292 20.2802 28.7023 20.2802 29.1624V35.8281C20.2802 36.2883 20.6851 36.6613 21.1845 36.6613H28.4189C28.9182 36.6613 29.3231 36.2883 29.3231 35.8281V29.1624C29.3231 28.7023 28.9182 28.3292 28.4189 28.3292H21.1845ZM27.5146 34.9949H22.0888V29.9956H27.5146V34.9949Z" fill="#FF4B4B"/>
<path d="M41.0789 23.3299C41.5783 23.3299 41.9832 22.9569 41.9832 22.4967V17.4975C41.9832 17.0373 41.5783 16.6642 41.0789 16.6642H33.8446C33.3452 16.6642 32.9403 17.0373 32.9403 17.4975V24.1632C32.9403 24.6233 33.3452 24.9964 33.8446 24.9964C34.344 24.9964 34.7489 24.6233 34.7489 24.1632V18.3307H40.1746V22.4967C40.1746 22.9569 40.5796 23.3299 41.0789 23.3299Z" fill="#FF4B4B"/>
<path d="M29.0609 16.9059C28.8909 16.7481 28.66 16.6594 28.4189 16.6594C28.1778 16.6594 27.9464 16.7481 27.7769 16.9059L24.8017 19.6553L21.8265 16.9059C21.4719 16.5792 20.897 16.5792 20.5425 16.9059C20.1879 17.2326 20.1879 17.7623 20.5425 18.089L23.5265 20.8303L20.5425 23.5716C20.3712 23.7278 20.2749 23.941 20.2749 24.1632C20.2749 24.3853 20.3712 24.5985 20.5425 24.7547C20.712 24.9126 20.9434 25.0012 21.1845 25.0012C21.4256 25.0012 21.6565 24.9126 21.8265 24.7547L24.8017 22.0053L27.7769 24.7547C27.9464 24.9126 28.1778 25.0012 28.4189 25.0012C28.66 25.0012 28.8909 24.9126 29.0609 24.7547C29.2322 24.5985 29.3285 24.3853 29.3285 24.1632C29.3285 23.941 29.2322 23.7278 29.0609 23.5716L26.0769 20.8303L29.0609 18.089C29.2322 17.9328 29.3285 17.7196 29.3285 17.4975C29.3285 17.2753 29.2322 17.0621 29.0609 16.9059Z" fill="#FF4B4B"/>
</svg>
