<svg width="133" height="38" viewBox="0 0 133 38" fill="none" xmlns="http://www.w3.org/2000/svg">
<path d="M48.6293 16.1591C47.8007 16.1591 47.0947 15.8707 46.5114 15.294C45.9347 14.7107 45.6463 14.008 45.6463 13.1861V6.38494C45.6463 5.55634 45.938 4.85369 46.5213 4.27699C47.1046 3.69365 47.8073 3.40199 48.6293 3.40199C49.4579 3.40199 50.1605 3.69365 50.7372 4.27699C51.3139 4.86032 51.6023 5.56297 51.6023 6.38494V7.80682H49.6534V6.34517C49.6534 6.04687 49.5473 5.79167 49.3352 5.57955C49.1231 5.36742 48.8679 5.26136 48.5696 5.26136C48.2713 5.26136 48.0161 5.36742 47.804 5.57955C47.5985 5.79167 47.4957 6.04687 47.4957 6.34517V13.1662C47.4957 13.4645 47.5985 13.7197 47.804 13.9318C48.0161 14.1373 48.2713 14.2401 48.5696 14.2401C48.8679 14.2401 49.1231 14.1373 49.3352 13.9318C49.5473 13.7197 49.6534 13.4645 49.6534 13.1662V11.446H51.6023V13.1861C51.6023 14.0147 51.3106 14.7173 50.7273 15.294C50.1439 15.8707 49.4446 16.1591 48.6293 16.1591ZM57.1277 10.7202V16H55.2385V3.54119H57.1277V8.83097H59.3749V3.54119H61.2641V16H59.3749V10.7202H57.1277ZM66.915 16H65.0358V3.54119H66.915V16ZM72.8083 16L70.5811 3.54119H72.5498L74.1109 13.2358L75.6919 3.54119H77.6606L75.3936 16H72.8083ZM81.3217 16V3.53125H86.6711V5.41051H83.201V8.82102H85.7365V10.7102H83.201V14.1207H86.6711V16H81.3217ZM96.2807 12.8977C96.294 13.7661 96.0686 14.5085 95.6046 15.125C95.2997 15.5426 94.8688 15.8376 94.312 16.0099C94.0137 16.1027 93.6657 16.1491 93.2679 16.1491C92.5321 16.1491 91.9223 15.9669 91.4384 15.6023C91.034 15.304 90.7125 14.8996 90.4739 14.3892C90.2419 13.8722 90.106 13.2822 90.0662 12.6193L91.856 12.4901C91.9355 13.2126 92.1278 13.7363 92.4327 14.0611C92.6581 14.3063 92.9166 14.4223 93.2083 14.4091C93.6193 14.3958 93.9474 14.1937 94.1926 13.8026C94.3186 13.6103 94.3816 13.3352 94.3816 12.9773C94.3816 12.4602 94.1462 11.9465 93.6756 11.4361C93.3044 11.0848 92.7476 10.5578 92.0051 9.85511C91.382 9.25189 90.9412 8.71165 90.6827 8.23438C90.4043 7.69744 90.2651 7.11411 90.2651 6.48438C90.2651 5.35085 90.6462 4.49242 91.4086 3.90909C91.8792 3.55776 92.4625 3.3821 93.1586 3.3821C93.8281 3.3821 94.4015 3.53125 94.8787 3.82955C95.2499 4.06155 95.5482 4.38636 95.7736 4.80398C96.0056 5.22159 96.1448 5.70218 96.1912 6.24574L94.3915 6.57386C94.3385 6.06345 94.1926 5.66572 93.954 5.38068C93.7817 5.17519 93.5331 5.07244 93.2083 5.07244C92.8636 5.07244 92.6017 5.2249 92.4228 5.52983C92.2769 5.77509 92.204 6.08002 92.204 6.4446C92.204 7.01468 92.4493 7.5947 92.9398 8.18466C93.1254 8.41004 93.4038 8.67519 93.775 8.98011C94.2125 9.3447 94.5009 9.59991 94.6401 9.74574C95.1041 10.2098 95.4621 10.6671 95.714 11.1179C95.8333 11.33 95.9294 11.5256 96.0023 11.7045C96.1813 12.1487 96.2741 12.5464 96.2807 12.8977ZM102.878 3.3821C103.706 3.3821 104.409 3.67377 104.985 4.2571C105.569 4.84044 105.86 5.54309 105.86 6.36506V13.1662C105.86 13.9948 105.569 14.7008 104.985 15.2841C104.402 15.8608 103.699 16.1491 102.878 16.1491C102.049 16.1491 101.346 15.8575 100.77 15.2741C100.193 14.6908 99.9045 13.9882 99.9045 13.1662V6.36506C99.9045 5.53646 100.196 4.83381 100.78 4.2571C101.363 3.67377 102.062 3.3821 102.878 3.3821ZM103.902 6.32528C103.902 6.02699 103.796 5.77509 103.583 5.5696C103.378 5.35748 103.126 5.25142 102.828 5.25142C102.53 5.25142 102.274 5.35748 102.062 5.5696C101.85 5.77509 101.744 6.02699 101.744 6.32528V13.1463C101.744 13.4446 101.85 13.6998 102.062 13.9119C102.274 14.1174 102.53 14.2202 102.828 14.2202C103.126 14.2202 103.378 14.1174 103.583 13.9119C103.796 13.6998 103.902 13.4446 103.902 13.1463V6.32528ZM111.724 3.53125L114.21 11.9034V3.53125H116.089V16H114.071L111.485 8.01562V16H109.606V3.53125H111.724Z" fill="black"/>
<path d="M58.8707 22.5412C59.7855 22.5412 60.5147 22.8295 61.0582 23.4062C61.562 23.9564 61.8139 24.6591 61.8139 25.5142V27.3239C61.8139 28.1458 61.5256 28.8485 60.9489 29.4318C60.3788 30.0152 59.6861 30.3068 58.8707 30.3068H57.7869V35H55.9077V22.5412H58.8707ZM59.9943 25.544C59.9943 25.2192 59.8949 24.9574 59.696 24.7585C59.5038 24.5597 59.2453 24.4602 58.9204 24.4602H57.7869V28.4474H58.9204C59.2187 28.4474 59.4706 28.3414 59.6761 28.1293C59.8882 27.9171 59.9943 27.6619 59.9943 27.3636V25.544ZM68.3809 22.5412C69.4282 22.5412 70.1972 22.8295 70.6877 23.4062C71.1186 23.91 71.334 24.6127 71.334 25.5142V27.3239C71.334 28.2055 70.9993 28.9512 70.3297 29.5611L71.7218 35H69.6934L68.5499 30.2969C68.4969 30.3035 68.4405 30.3068 68.3809 30.3068H67.2971V35H65.4178V22.5412H68.3809ZM69.5045 25.544C69.5045 24.8215 69.1465 24.4602 68.4306 24.4602H67.2971V28.4474H68.4306C68.7289 28.4474 68.9808 28.3414 69.1863 28.1293C69.3984 27.9171 69.5045 27.6619 69.5045 27.3636V25.544ZM78.0924 22.3821C78.921 22.3821 79.6236 22.6738 80.2003 23.2571C80.7837 23.8404 81.0753 24.5431 81.0753 25.3651V32.1662C81.0753 32.9948 80.7837 33.7008 80.2003 34.2841C79.617 34.8608 78.9144 35.1491 78.0924 35.1491C77.2638 35.1491 76.5611 34.8575 75.9844 34.2741C75.4077 33.6908 75.1194 32.9882 75.1194 32.1662V25.3651C75.1194 24.5365 75.411 23.8338 75.9944 23.2571C76.5777 22.6738 77.277 22.3821 78.0924 22.3821ZM79.1165 25.3253C79.1165 25.027 79.0105 24.7751 78.7984 24.5696C78.5929 24.3575 78.341 24.2514 78.0427 24.2514C77.7444 24.2514 77.4892 24.3575 77.277 24.5696C77.0649 24.7751 76.9589 25.027 76.9589 25.3253V32.1463C76.9589 32.4446 77.0649 32.6998 77.277 32.9119C77.4892 33.1174 77.7444 33.2202 78.0427 33.2202C78.341 33.2202 78.5929 33.1174 78.7984 32.9119C79.0105 32.6998 79.1165 32.4446 79.1165 32.1463V25.3253ZM88.6018 32.1761C88.6018 33.0047 88.3102 33.7074 87.7268 34.2841C87.1501 34.8542 86.4508 35.1392 85.6288 35.1392C85.1516 35.1392 84.7638 35.0895 84.4655 34.9901L84.7339 33.2401C84.9461 33.2798 85.1283 33.2997 85.2808 33.2997C85.3736 33.3063 85.5062 33.303 85.6785 33.2898C85.9835 33.2699 86.2387 33.1605 86.4442 32.9616C86.6563 32.7628 86.7623 32.5142 86.7623 32.2159V22.5611H88.6018V32.1761ZM92.376 35V22.5312H97.7255V24.4105H94.2553V27.821H96.7908V29.7102H94.2553V33.1207H97.7255V35H92.376ZM104.104 35.1591C103.275 35.1591 102.569 34.8707 101.986 34.294C101.409 33.7107 101.121 33.008 101.121 32.1861V25.3849C101.121 24.5563 101.412 23.8537 101.996 23.277C102.579 22.6937 103.282 22.402 104.104 22.402C104.932 22.402 105.635 22.6937 106.211 23.277C106.788 23.8603 107.077 24.563 107.077 25.3849V26.8068H105.128V25.3452C105.128 25.0469 105.022 24.7917 104.809 24.5795C104.597 24.3674 104.342 24.2614 104.044 24.2614C103.746 24.2614 103.49 24.3674 103.278 24.5795C103.073 24.7917 102.97 25.0469 102.97 25.3452V32.1662C102.97 32.4645 103.073 32.7197 103.278 32.9318C103.49 33.1373 103.746 33.2401 104.044 33.2401C104.342 33.2401 104.597 33.1373 104.809 32.9318C105.022 32.7197 105.128 32.4645 105.128 32.1662V30.446H107.077V32.1861C107.077 33.0147 106.785 33.7173 106.202 34.294C105.618 34.8707 104.919 35.1591 104.104 35.1591ZM112.465 24.4205H110.467V22.5412H116.333V24.4205H114.344V35H112.465V24.4205ZM125.945 31.8977C125.958 32.7661 125.733 33.5085 125.269 34.125C124.964 34.5426 124.533 34.8376 123.976 35.0099C123.678 35.1027 123.33 35.1491 122.932 35.1491C122.197 35.1491 121.587 34.9669 121.103 34.6023C120.699 34.304 120.377 33.8996 120.138 33.3892C119.906 32.8722 119.77 32.2822 119.731 31.6193L121.52 31.4901C121.6 32.2126 121.792 32.7363 122.097 33.0611C122.323 33.3063 122.581 33.4223 122.873 33.4091C123.284 33.3958 123.612 33.1937 123.857 32.8026C123.983 32.6103 124.046 32.3352 124.046 31.9773C124.046 31.4602 123.811 30.9465 123.34 30.4361C122.969 30.0848 122.412 29.5578 121.67 28.8551C121.047 28.2519 120.606 27.7116 120.347 27.2344C120.069 26.6974 119.93 26.1141 119.93 25.4844C119.93 24.3509 120.311 23.4924 121.073 22.9091C121.544 22.5578 122.127 22.3821 122.823 22.3821C123.493 22.3821 124.066 22.5312 124.543 22.8295C124.914 23.0616 125.213 23.3864 125.438 23.804C125.67 24.2216 125.809 24.7022 125.856 25.2457L124.056 25.5739C124.003 25.0634 123.857 24.6657 123.618 24.3807C123.446 24.1752 123.198 24.0724 122.873 24.0724C122.528 24.0724 122.266 24.2249 122.087 24.5298C121.941 24.7751 121.868 25.08 121.868 25.4446C121.868 26.0147 122.114 26.5947 122.604 27.1847C122.79 27.41 123.068 27.6752 123.44 27.9801C123.877 28.3447 124.165 28.5999 124.305 28.7457C124.769 29.2098 125.127 29.6671 125.378 30.1179C125.498 30.33 125.594 30.5256 125.667 30.7045C125.846 31.1487 125.939 31.5464 125.945 31.8977Z" fill="black"/>
<mask id="path-3-inside-1" fill="white">
<path d="M38 19C38 14.3822 36.3183 9.92244 33.2692 6.45443C30.22 2.98642 26.0123 0.747555 21.4325 0.156355C16.8527 -0.434845 12.2143 0.662093 8.3845 3.24211C4.55466 5.82213 1.79552 9.70862 0.622846 14.175C-0.549823 18.6415 -0.0557432 23.3821 2.01272 27.5107C4.08119 31.6394 7.58245 34.8734 11.862 36.6082C16.1415 38.343 20.9064 38.46 25.2659 36.9371C29.6253 35.4142 33.281 32.3558 35.5495 28.3336L19 19H38Z"/>
</mask>
<path d="M38 19C38 14.3822 36.3183 9.92244 33.2692 6.45443C30.22 2.98642 26.0123 0.747555 21.4325 0.156355C16.8527 -0.434845 12.2143 0.662093 8.3845 3.24211C4.55466 5.82213 1.79552 9.70862 0.622846 14.175C-0.549823 18.6415 -0.0557432 23.3821 2.01272 27.5107C4.08119 31.6394 7.58245 34.8734 11.862 36.6082C16.1415 38.343 20.9064 38.46 25.2659 36.9371C29.6253 35.4142 33.281 32.3558 35.5495 28.3336L19 19H38Z" fill="#FF4B4B" fill-opacity="0.6" stroke="black" stroke-width="4" mask="url(#path-3-inside-1)"/>
<path d="M21.8547 14.2684C21.2988 14.7104 20.6713 14.8935 19.9723 14.8178C19.2742 14.734 18.7059 14.4164 18.2675 13.8649L14.6396 9.30175C14.1976 8.74582 14.0185 8.1188 14.1023 7.42071C14.1825 6.71816 14.4983 6.14767 15.0498 5.70921C15.6058 5.26722 16.2328 5.0881 16.9309 5.17186C17.629 5.25561 18.1972 5.57323 18.6357 6.12472L19.3942 7.07871L18.0866 8.11828L17.3069 7.1376C17.1478 6.93746 16.9405 6.82281 16.685 6.79364C16.4296 6.76447 16.2018 6.82944 16.0016 6.98856C15.8015 7.14767 15.6868 7.35497 15.6577 7.61044C15.6329 7.86237 15.7001 8.08841 15.8593 8.28855L19.4977 12.865C19.6568 13.0652 19.8619 13.1816 20.1129 13.2143C20.3649 13.239 20.5909 13.1718 20.791 13.0127C20.9912 12.8536 21.1076 12.6485 21.1403 12.3975C21.1695 12.142 21.1045 11.9142 20.9454 11.7141L20.0278 10.56L21.3354 9.52039L22.2636 10.6879C22.7055 11.2438 22.8847 11.8708 22.8009 12.5689C22.7172 13.267 22.4018 13.8335 21.8547 14.2684Z" fill="black"/>
<path d="M16.1108 23.8133C16.7246 23.3253 17.3676 23.1298 18.0399 23.2268C18.6714 23.3271 19.2152 23.6642 19.6714 24.2378L20.6368 25.4519C21.0753 26.0034 21.2567 26.6286 21.181 27.3277C21.1097 28.0231 20.8006 28.5883 20.2535 29.0233L19.5264 29.6015L22.0301 32.7501L20.7693 33.7527L14.1229 25.394L16.1108 23.8133ZM18.4666 25.2286C18.2933 25.0106 18.0869 24.888 17.8474 24.8607C17.6123 24.8298 17.3859 24.901 17.1679 25.0743L16.4075 25.679L18.5345 28.354L19.295 27.7493C19.4951 27.5902 19.6075 27.3847 19.6322 27.1327C19.6614 26.8773 19.5964 26.6495 19.4373 26.4493L18.4666 25.2286Z" fill="black"/>
</svg>
