<svg width="21" height="21" viewBox="0 0 21 21" fill="none" xmlns="http://www.w3.org/2000/svg">
<path d="M3.0567 20.8286H1.56871L2.6209 19.6434C3.18823 19.0043 3.54251 18.1731 3.63776 17.2714C2.15732 16.177 1.07476 14.7372 0.495268 13.086C-0.0838141 11.4361 -0.156585 9.61977 0.284846 7.83341C0.814497 5.68996 2.05677 3.73628 3.78276 2.3322C5.65836 0.806484 7.99326 0 10.5351 0C13.7371 0 16.4361 1.03629 18.3401 2.99677C20.0553 4.76299 21 7.14537 21 9.70512C21 10.9487 20.7752 12.1588 20.3319 13.3017C19.8731 14.4843 19.2013 15.5374 18.3352 16.4315C16.4286 18.3997 13.7314 19.44 10.5351 19.44C9.3485 19.44 8.11033 19.2616 7.00488 18.9342C5.95852 20.1433 4.54063 20.8286 3.0567 20.8286ZM10.5351 1.38857C5.43832 1.38857 2.31092 4.81247 1.47239 8.20578C0.680009 11.4125 1.84808 14.4425 4.597 16.3111L4.90415 16.5199L4.8947 16.9239C4.87596 17.7234 4.70676 18.4935 4.40388 19.1896C5.14141 18.9085 5.81064 18.3989 6.3347 17.7015L6.5953 17.3547L6.98175 17.4849C8.06624 17.8503 9.32816 18.0515 10.5351 18.0515C16.8783 18.0515 19.7673 13.725 19.7673 9.70512C19.7673 7.54005 18.9651 5.52162 17.5083 4.02168C15.8354 2.29911 13.4241 1.38857 10.5351 1.38857Z" fill="#949494"/>
</svg>
