<svg width="55" height="50" viewBox="0 0 55 50" fill="none" xmlns="http://www.w3.org/2000/svg">
<path d="M54.2463 11.8519C54.0595 11.212 53.6038 10.6664 52.9804 10.3357C52.3565 10.0033 51.6147 9.91339 50.9188 10.0855C50.2238 10.258 49.6317 10.6774 49.2727 11.2519L48.8206 11.9768C48.391 11.7494 47.8422 11.8833 47.5909 12.2771L45.294 15.8845L44.5072 15.4679C44.2988 15.3568 44.0507 15.3267 43.8184 15.3845C43.5857 15.4426 43.3879 15.5834 43.2682 15.7762C43.0232 16.1745 43.1724 16.6806 43.6029 16.9093L44.3898 17.3259L36.7034 29.5988L34.8044 34.2733L33.9001 35.831C33.3707 36.6797 33.4272 37.7346 34.0449 38.5308L32.0103 40.8302L31.4407 39.5141C31.1837 38.9274 30.589 38.5255 29.905 38.4762C29.2207 38.4266 28.565 38.7382 28.2122 39.2805L27.8868 39.7887L27.5795 36.4559C27.5088 35.6675 26.8461 35.0336 25.9939 34.9384C25.1413 34.8436 24.3341 35.3143 24.0617 36.0645L21.8372 42.2134C21.6818 42.6483 21.9361 43.117 22.4068 43.2634C22.4951 43.3013 22.5901 43.324 22.6872 43.3297C23.0757 43.331 23.4219 43.1027 23.5464 42.7634L25.7616 36.6146L26.0782 39.997C26.1436 40.7187 26.7065 41.3188 27.4722 41.4823C28.2378 41.6459 29.0299 41.335 29.433 40.7138L29.7677 40.2053L30.3285 41.5136C30.5665 42.0649 31.1047 42.4583 31.7418 42.5458C32.379 42.6332 33.0183 42.4018 33.421 41.9384L35.5281 39.4807C35.7612 39.5368 36.0014 39.5649 36.2425 39.5641C37.2116 39.571 38.1115 39.1007 38.6025 38.3306L39.5068 36.9392L42.9521 33.0816L50.7197 20.6586L51.5065 21.0752C51.7162 21.1859 51.869 21.3686 51.9313 21.5838C51.994 21.7974 51.9613 22.0252 51.8412 22.2168L48.2241 27.991C48.0877 28.1805 48.0413 28.4133 48.096 28.6354C48.1508 28.8571 48.3014 29.0487 48.5133 29.1655C48.7217 29.277 48.9699 29.3071 49.2021 29.2493C49.4348 29.1911 49.6326 29.0504 49.7523 28.8575L53.3694 23.0833C53.7301 22.5085 53.8277 21.825 53.6405 21.1839C53.4532 20.5435 52.998 19.9979 52.3746 19.6672L51.5877 19.2506L53.8484 15.6428C54.0952 15.247 53.95 14.7417 53.523 14.5098L53.9751 13.7848C54.3456 13.201 54.4436 12.5037 54.2463 11.8519ZM50.8371 12.0851C50.9568 11.8922 51.1555 11.751 51.389 11.6937C51.6213 11.6408 51.8668 11.6705 52.0761 11.7771C52.2858 11.8873 52.4386 12.0704 52.5013 12.2852C52.5587 12.4992 52.5265 12.7254 52.4108 12.9182L51.9586 13.6432L50.385 12.81L50.8371 12.0851ZM38.512 35.3481L38.0598 35.1064L36.7215 34.3896L38.0055 31.2236L40.8539 32.7399L38.512 35.3481ZM35.7992 37.7557C35.4172 37.5104 35.2998 37.0385 35.5281 36.6642L35.9802 35.9396L37.5534 36.7728L37.1013 37.4893C36.9745 37.6919 36.7617 37.8359 36.514 37.8867C36.2663 37.9372 36.0071 37.89 35.7992 37.7557ZM41.8849 31.3738L38.7562 29.7074L45.9903 18.1591L49.1191 19.8254L41.8849 31.3738ZM50.0234 18.384L46.8946 16.7177L48.7032 13.8348L51.8319 15.5012L50.0234 18.384Z" fill="#FF4B4B"/>
<path d="M14.3546 37.3436L11.1539 40.285L9.23671 38.5186C8.88392 38.1955 8.31433 38.1955 7.96154 38.5186C7.79023 38.6752 7.69397 38.888 7.69397 39.1101C7.69397 39.3322 7.79023 39.5454 7.96154 39.7016L9.87871 41.4681C10.2178 41.7781 10.6761 41.9518 11.1539 41.9514C11.6343 41.9538 12.0966 41.7801 12.4379 41.4681L15.6298 38.5186C15.9371 38.1878 15.9163 37.6951 15.5825 37.3876C15.2483 37.0796 14.7136 37.0605 14.3546 37.3436Z" fill="#FF4B4B"/>
<path d="M3.70245 39.585C3.70245 43.4966 7.14382 46.6671 11.3888 46.6671C15.6337 46.6671 19.0751 43.4966 19.0751 39.585C19.0751 39.1248 18.6702 38.7518 18.1708 38.7518C17.6714 38.7518 17.2666 39.1248 17.2666 39.585C17.2666 42.576 14.635 45.0007 11.3888 45.0007C8.14258 45.0007 5.511 42.576 5.511 39.585C5.511 36.5939 8.14258 34.1692 11.3888 34.1692C12.6613 34.166 13.8998 34.5463 14.9154 35.2526C15.315 35.5288 15.8819 35.454 16.1813 35.0858C16.4811 34.7176 16.4003 34.1957 16.0007 33.9194C13.6715 32.31 10.5552 32.0512 7.95139 33.2506C5.34719 34.4503 3.70245 36.9027 3.70245 39.585Z" fill="#FF4B4B"/>
<path d="M32.6391 6.67383C33.1385 6.67383 33.5434 6.30117 33.5434 5.84064C33.5434 5.38051 33.1385 5.00745 32.6391 5.00745H9.128C8.62862 5.00745 8.22372 5.38051 8.22372 5.84064V9.1734C8.22372 9.63394 8.62862 10.0066 9.128 10.0066H32.6391C33.1385 10.0066 33.5434 9.63394 33.5434 9.1734C33.5434 8.71328 33.1385 8.34021 32.6391 8.34021H10.0323V6.67383H32.6391Z" fill="#FF4B4B"/>
<path d="M11.8409 11.673C11.3415 11.673 10.9366 12.0461 10.9366 12.5062C10.9366 12.9668 11.3415 13.3394 11.8409 13.3394H29.9263C30.4257 13.3394 30.8306 12.9668 30.8306 12.5062C30.8306 12.0461 30.4257 11.673 29.9263 11.673H11.8409Z" fill="#FF4B4B"/>
<path d="M35.352 17.5053H15.458C14.9586 17.5053 14.5537 17.8784 14.5537 18.3385C14.5537 18.799 14.9586 19.1717 15.458 19.1717H35.352C35.8514 19.1717 36.2563 18.799 36.2563 18.3385C36.2563 17.8784 35.8514 17.5053 35.352 17.5053Z" fill="#FF4B4B"/>
<path d="M26.3092 23.3377C26.3092 22.8776 25.9043 22.5045 25.405 22.5045H7.3195C6.82011 22.5045 6.41522 22.8776 6.41522 23.3377C6.41522 23.7982 6.82011 24.1709 7.3195 24.1709H25.405C25.9043 24.1709 26.3092 23.7982 26.3092 23.3377Z" fill="#FF4B4B"/>
<path d="M35.352 22.5045H29.0221C28.5227 22.5045 28.1178 22.8776 28.1178 23.3377C28.1178 23.7982 28.5227 24.1709 29.0221 24.1709H35.352C35.8514 24.1709 36.2563 23.7982 36.2563 23.3377C36.2563 22.8776 35.8514 22.5045 35.352 22.5045Z" fill="#FF4B4B"/>
<path d="M16.3622 28.3368C16.8616 28.3368 17.2665 27.9642 17.2665 27.5037C17.2665 27.0435 16.8616 26.6705 16.3622 26.6705H7.3195C6.82011 26.6705 6.41522 27.0435 6.41522 27.5037C6.41522 27.9642 6.82011 28.3368 7.3195 28.3368H16.3622Z" fill="#FF4B4B"/>
<path d="M19.9793 28.3368H26.3092C26.8086 28.3368 27.2134 27.9642 27.2134 27.5037C27.2134 27.0435 26.8086 26.6705 26.3092 26.6705H19.9793C19.4799 26.6705 19.075 27.0435 19.075 27.5037C19.075 27.9642 19.4799 28.3368 19.9793 28.3368Z" fill="#FF4B4B"/>
<path d="M40.7776 38.3352C40.2783 38.3352 39.8734 38.7082 39.8734 39.1684V47.5003C39.8734 47.9608 39.4685 48.3335 38.9691 48.3335H2.79815C2.29877 48.3335 1.89387 47.9608 1.89387 47.5003V2.50794C1.89387 2.04781 2.29877 1.67474 2.79815 1.67474H38.9691C39.4685 1.67474 39.8734 2.04781 39.8734 2.50794V18.1555C39.8734 18.6156 40.2783 18.9887 40.7776 18.9887C41.277 18.9887 41.6819 18.6156 41.6819 18.1555V2.50794C41.6819 1.12756 40.4672 0.00836182 38.9691 0.00836182H2.79815C1.3 0.00836182 0.0853271 1.12756 0.0853271 2.50794V47.5003C0.0853271 48.8811 1.3 49.9998 2.79815 49.9998H38.9691C40.4672 49.9998 41.6819 48.8811 41.6819 47.5003V39.1684C41.6819 38.7082 41.277 38.3352 40.7776 38.3352Z" fill="#FF4B4B"/>
</svg>
