<svg width="17" height="14" viewBox="0 0 17 14" fill="none" xmlns="http://www.w3.org/2000/svg">
<path d="M13.111 8.43555C12.7821 8.17061 12.3853 8.02896 11.9648 8.02896C11.5477 8.02896 11.1475 8.16799 10.805 8.43293L9.73333 9.25922C9.64516 9.2225 9.55698 9.1884 9.4722 9.1543C9.35012 9.10708 9.23482 9.06248 9.13647 9.01527C8.13266 8.52211 7.22041 7.87944 6.34547 7.0479C5.92156 6.63344 5.6367 6.28456 5.42983 5.93043C5.70791 5.7337 5.96565 5.52909 6.2166 5.33235C6.31156 5.2589 6.40651 5.18283 6.50147 5.10938C7.21363 4.55852 7.21363 3.84502 6.50147 3.29416L5.57565 2.57803C5.47052 2.49672 5.362 2.41278 5.26027 2.32883C5.05679 2.1662 4.84314 1.99832 4.62271 1.84093C4.29376 1.5891 3.90037 1.45532 3.48664 1.45532C3.07291 1.45532 2.67274 1.5891 2.33362 1.84093C2.33022 1.84355 2.33022 1.84355 2.32683 1.84617L1.17381 2.74592C0.739726 3.08168 0.492165 3.49089 0.437905 3.96569C0.356515 4.73165 0.648162 5.44515 0.871985 5.91207C1.42137 7.05839 2.24205 8.12077 3.46629 9.25922C4.95166 10.6311 6.73885 11.7145 8.78039 12.4778C9.56038 12.7638 10.6015 13.1022 11.7647 13.1599C11.8359 13.1625 11.9105 13.1651 11.9783 13.1651C12.7617 13.1651 13.4196 12.9474 13.9351 12.5146C13.9385 12.5093 13.9453 12.5067 13.9487 12.5014C14.125 12.3362 14.3285 12.1867 14.5421 12.0267C14.688 11.9191 14.8372 11.8063 14.983 11.6883C15.3187 11.4181 15.4951 11.1033 15.4951 10.7807C15.4951 10.4554 15.3153 10.1432 14.9728 9.88091L13.111 8.43555ZM14.3251 11.1977C14.3217 11.1977 14.3217 11.2004 14.3251 11.1977C14.1928 11.3079 14.0572 11.4076 13.9114 11.5178C13.6909 11.6804 13.4671 11.8509 13.2568 12.0424C12.9143 12.3257 12.5108 12.4595 11.9817 12.4595C11.9309 12.4595 11.8766 12.4595 11.8257 12.4569C10.8185 12.407 9.88254 12.1027 9.18056 11.843C7.26111 11.1243 5.57565 10.1039 4.17507 8.81066C3.01865 7.73254 2.24544 6.73574 1.73336 5.66549C1.41798 5.01233 1.30267 4.50343 1.35354 4.0234C1.38746 3.71649 1.54006 3.46204 1.82154 3.24432L2.97795 2.34982C3.14412 2.22915 3.32047 2.16358 3.49342 2.16358C3.70707 2.16358 3.88003 2.26326 3.98855 2.3472C3.99194 2.34982 3.99533 2.35244 3.99872 2.35507C4.20559 2.50459 4.40228 2.65935 4.60915 2.82461C4.71427 2.90855 4.82279 2.99249 4.93131 3.07906L5.85713 3.79518C6.2166 4.07324 6.2166 4.33031 5.85713 4.60836C5.75878 4.68443 5.66383 4.7605 5.56548 4.83395C5.28061 5.05954 5.00931 5.2694 4.71428 5.474C4.70749 5.47925 4.70071 5.48187 4.69732 5.48712C4.40567 5.71271 4.45993 5.93306 4.52097 6.08258C4.52436 6.09045 4.52776 6.09831 4.53115 6.10618C4.77193 6.55737 5.11105 6.98232 5.62652 7.48859L5.62991 7.49121C6.5659 8.38309 7.55275 9.07822 8.64135 9.61073C8.78039 9.67893 8.92282 9.73401 9.05847 9.78648C9.18056 9.83369 9.29586 9.87829 9.3942 9.9255C9.40777 9.93075 9.42133 9.93862 9.4349 9.94387C9.5502 9.98846 9.65872 10.0094 9.77063 10.0094C10.0521 10.0094 10.2285 9.87304 10.2861 9.82845L11.4459 8.93133C11.5612 8.84214 11.7443 8.73459 11.958 8.73459C12.1682 8.73459 12.3412 8.83689 12.4463 8.92608C12.4497 8.9287 12.4497 8.9287 12.4531 8.93133L14.3217 10.3767C14.671 10.6443 14.671 10.9197 14.3251 11.1977Z" fill="#949494"/>
<path d="M9.09575 3.69274C9.98426 3.80815 10.7914 4.13343 11.4357 4.63183C12.0801 5.13023 12.4972 5.75454 12.6498 6.44181C12.6871 6.61494 12.8804 6.7356 13.1008 6.7356C13.128 6.7356 13.1517 6.73298 13.1788 6.73035C13.4298 6.69888 13.596 6.51526 13.5553 6.32114C13.3721 5.4896 12.8634 4.73151 12.0868 4.1308C11.3102 3.5301 10.3302 3.13663 9.25514 2.99498C9.00418 2.9635 8.77019 3.09203 8.7261 3.28352C8.68201 3.47501 8.84479 3.66126 9.09575 3.69274Z" fill="#949494"/>
<path d="M16.4616 6.21913C16.1598 4.84984 15.3255 3.60384 14.0437 2.61228C12.7618 1.62073 11.1509 0.975432 9.38068 0.741971C9.13312 0.70787 8.89912 0.839028 8.85503 1.03052C8.81434 1.22463 8.98051 1.40563 9.23146 1.43973C10.8118 1.64696 12.2531 2.22668 13.3993 3.11068C14.5456 3.99731 15.2916 5.11215 15.5595 6.33455C15.5968 6.50768 15.7901 6.62834 16.0106 6.62834C16.0377 6.62834 16.0614 6.62572 16.0886 6.62309C16.3361 6.59424 16.5057 6.41062 16.4616 6.21913Z" fill="#949494"/>
</svg>
