<svg width="55" height="50" viewBox="0 0 55 50" fill="none" xmlns="http://www.w3.org/2000/svg">
<path d="M52.536 35.6352V33.3352H53.4403C53.6898 33.3369 53.9287 33.2433 54.1004 33.0769C54.2541 32.9186 54.3411 32.7144 54.3446 32.502L52.7258 4.17195C52.5717 1.87892 50.5079 0.0916138 48.0144 0.0916138C45.5208 0.0916138 43.457 1.87892 43.3029 4.17195L41.6841 32.502C41.6766 32.729 41.764 32.9495 41.9283 33.1188C42.1076 33.2697 42.3456 33.3478 42.5884 33.3352H43.4927V35.6352L41.7835 38.7932C41.6545 39.0287 41.6545 39.307 41.7835 39.543L47.2094 49.5418C47.2535 49.6338 47.3185 49.716 47.3993 49.7835C47.5048 49.8734 47.632 49.9393 47.7702 49.9751H48.2674C48.406 49.9393 48.5332 49.8734 48.6383 49.7835C48.7195 49.716 48.784 49.6338 48.8282 49.5418L54.2541 39.543C54.383 39.307 54.383 39.0287 54.2541 38.7932L52.536 35.6352ZM43.5378 31.6688L43.918 25.0029H52.1107L52.536 31.6688H43.5378ZM45.1115 4.21386C45.1115 2.73657 46.411 1.53879 48.0144 1.53879C49.6177 1.53879 50.9172 2.73657 50.9172 4.21386L52.0114 23.3783H44.0173L44.1167 21.7118H49.1536C49.6534 21.7118 50.0579 21.3387 50.0579 20.8786C50.0579 20.418 49.6534 20.0454 49.1536 20.0454H44.2072L45.1115 4.21386ZM50.7273 33.3352V35.0017H45.3014V33.3352H50.7273ZM48.9187 45.634V40.0011H49.823C50.3224 40.0011 50.7273 39.628 50.7273 39.1679C50.7273 38.7077 50.3224 38.3347 49.823 38.3347H46.2057C45.7063 38.3347 45.3014 38.7077 45.3014 39.1679C45.3014 39.628 45.7063 40.0011 46.2057 40.0011H47.11V45.634L43.6014 39.1679L44.9579 36.6682H51.0709L52.4273 39.1679L48.9187 45.634Z" fill="#FF4B4B"/>
<path d="M30.8323 10.8379C31.3317 10.8379 31.7366 10.4648 31.7366 10.0046C31.7366 9.54447 31.3317 9.17139 30.8323 9.17139H7.31994C6.82053 9.17139 6.41562 9.54447 6.41562 10.0046V13.3376C6.41562 13.7977 6.82053 14.1708 7.31994 14.1708H30.8323C31.3317 14.1708 31.7366 13.7977 31.7366 13.3376C31.7366 12.8774 31.3317 12.5043 30.8323 12.5043H8.22426V10.8379H30.8323Z" fill="#FF4B4B"/>
<path d="M31.7366 18.337C31.7366 17.8768 31.3317 17.5037 30.8323 17.5037H10.9372C10.4378 17.5037 10.0329 17.8768 10.0329 18.337C10.0329 18.7971 10.4378 19.1702 10.9372 19.1702H30.8323C31.3317 19.1702 31.7366 18.7971 31.7366 18.337Z" fill="#FF4B4B"/>
<path d="M5.51129 22.5031C5.51129 22.9633 5.91621 23.3363 6.41561 23.3363H20.8848C21.3842 23.3363 21.7891 22.9633 21.7891 22.5031C21.7891 22.0429 21.3842 21.6699 20.8848 21.6699H6.41561C5.91621 21.6699 5.51129 22.0429 5.51129 22.5031Z" fill="#FF4B4B"/>
<path d="M26.3108 21.6699C25.8113 21.6699 25.4064 22.0429 25.4064 22.5031C25.4064 22.9633 25.8113 23.3363 26.3108 23.3363H29.9281C30.4275 23.3363 30.8324 22.9633 30.8324 22.5031C30.8324 22.0429 30.4275 21.6699 29.9281 21.6699H26.3108Z" fill="#FF4B4B"/>
<path d="M18.1718 26.6693C18.1718 26.2091 17.7669 25.8361 17.2675 25.8361H6.41561C5.91621 25.8361 5.51129 26.2091 5.51129 26.6693C5.51129 27.1294 5.91621 27.5025 6.41561 27.5025H17.2675C17.7669 27.5025 18.1718 27.1294 18.1718 26.6693Z" fill="#FF4B4B"/>
<path d="M17.2675 30.8356C17.2675 30.3754 16.8626 30.0023 16.3632 30.0023H6.41561C5.91621 30.0023 5.51129 30.3754 5.51129 30.8356C5.51129 31.2957 5.91621 31.6688 6.41561 31.6688H16.3632C16.8626 31.6688 17.2675 31.2957 17.2675 30.8356Z" fill="#FF4B4B"/>
<path d="M6.41561 34.1685C5.91621 34.1685 5.51129 34.5415 5.51129 35.0017C5.51129 35.4618 5.91621 35.8349 6.41561 35.8349H12.7459C13.2453 35.8349 13.6502 35.4618 13.6502 35.0017C13.6502 34.5415 13.2453 34.1685 12.7459 34.1685H6.41561Z" fill="#FF4B4B"/>
<path d="M35.3539 0.0057373H2.79829C1.30007 0.0057373 0.0853271 1.12499 0.0853271 2.50545V40.8343C0.0853271 42.2148 1.30007 43.334 2.79829 43.334H18.1718C18.6712 43.334 19.0761 42.961 19.0761 42.5008C19.0761 42.0406 18.6712 41.6676 18.1718 41.6676H2.79829C2.29889 41.6676 1.89397 41.2945 1.89397 40.8343V7.50487H36.2582V40.8343C36.2582 41.2945 35.8533 41.6676 35.3539 41.6676H32.6409C32.1415 41.6676 31.7366 42.0406 31.7366 42.5008C31.7366 42.961 32.1415 43.334 32.6409 43.334H35.3539C36.8521 43.334 38.0669 42.2148 38.0669 40.8343V2.50545C38.0669 1.12499 36.8521 0.0057373 35.3539 0.0057373ZM1.89397 5.83839V2.50545C1.89397 2.0453 2.29889 1.67221 2.79829 1.67221H35.3539C35.8533 1.67221 36.2582 2.0453 36.2582 2.50545V5.83839H1.89397Z" fill="#FF4B4B"/>
<path d="M25.4063 30.8354C23.908 30.8354 22.6933 31.9547 22.6933 33.3352C22.6933 34.7156 23.908 35.8349 25.4063 35.8349C26.9045 35.8349 28.1192 34.7156 28.1192 33.3352C28.1192 31.9547 26.9045 30.8354 25.4063 30.8354ZM25.4063 34.1684C24.9069 34.1684 24.5019 33.7953 24.5019 33.3352C24.5019 32.875 24.9069 32.5019 25.4063 32.5019C25.9057 32.5019 26.3106 32.875 26.3106 33.3352C26.3106 33.7953 25.9057 34.1684 25.4063 34.1684Z" fill="#FF4B4B"/>
<path d="M32.6409 33.3352C32.6396 32.4092 32.0832 31.5592 31.1939 31.1272C31.4897 30.2419 31.2301 29.2788 30.5196 28.6238C29.8087 27.9692 28.7635 27.7299 27.8027 28.0025C27.332 27.1856 26.4104 26.6746 25.4063 26.6746C24.4022 26.6746 23.4806 27.1856 23.0099 28.0025C22.0491 27.7299 21.0039 27.9692 20.293 28.6238C19.5825 29.2788 19.3229 30.2419 19.6187 31.1272C18.7316 31.5609 18.1775 32.41 18.1775 33.3352C18.1775 34.2604 18.7316 35.1099 19.6187 35.5432C19.3229 36.4264 19.5803 37.3878 20.2877 38.0429C20.4643 38.2052 20.6652 38.3427 20.8847 38.4514V49.1667C20.8865 49.5031 21.1077 49.8054 21.4455 49.9332C21.7819 50.0638 22.171 49.9946 22.431 49.7582L25.4063 47.0087L28.3816 49.7582C28.552 49.9145 28.7834 50.0011 29.0236 49.9999C29.1424 50.0028 29.2598 49.98 29.3671 49.9332C29.7049 49.8054 29.9261 49.5031 29.9279 49.1667V38.4595C30.1474 38.3509 30.3483 38.2133 30.5249 38.0514C31.2323 37.396 31.4897 36.435 31.1939 35.5517C32.0858 35.118 32.6431 34.2644 32.6409 33.3352ZM26.0483 45.2422C25.8788 45.0843 25.6474 44.9956 25.4063 44.9956C25.1652 44.9956 24.9338 45.0843 24.7643 45.2422L22.6933 47.1584V38.7431L23.0099 38.6678C23.4806 39.4852 24.4022 39.9958 25.4063 39.9958C26.4104 39.9958 27.332 39.4852 27.8027 38.6678L28.1193 38.7431V47.1584L26.0483 45.2422ZM29.9279 34.1684H29.7743C29.406 34.1668 29.073 34.371 28.9331 34.6851C28.794 34.9972 28.8726 35.3556 29.1322 35.5932L29.2408 35.6933C29.5914 36.0184 29.5914 36.5432 29.2408 36.8683C29.141 36.9647 29.0165 37.0363 28.8788 37.0766H28.7432C28.4584 37.1173 28.1696 37.0306 27.9656 36.8431L27.857 36.743C27.5982 36.5029 27.2074 36.4305 26.8683 36.5603C26.5288 36.6901 26.3084 36.9964 26.3106 37.3349V37.5014C26.3106 37.9615 25.9057 38.3346 25.4063 38.3346C24.9069 38.3346 24.502 37.9615 24.502 37.5014V37.3598C24.5037 37.0205 24.2821 36.7137 23.9412 36.5847C23.8321 36.5448 23.7151 36.5253 23.5977 36.5265C23.3574 36.5253 23.1261 36.6124 22.9556 36.7682L22.847 36.8683C22.643 37.0558 22.3542 37.1425 22.0694 37.1014H21.9338C21.7961 37.0615 21.6716 36.9899 21.5718 36.8931C21.2212 36.568 21.2212 36.0432 21.5718 35.7181L21.6897 35.6184C21.9493 35.3804 22.0279 35.022 21.8884 34.7099C21.7484 34.3962 21.4159 34.1916 21.0476 34.1936H20.8847C20.3853 34.1936 19.9804 33.8205 19.9804 33.3604C19.9804 32.8998 20.3853 32.5272 20.8847 32.5272H21.0384C21.4066 32.5288 21.7396 32.3241 21.8795 32.0105C22.0186 31.6984 21.94 31.34 21.6804 31.1019L21.5718 31.0023C21.2172 30.6776 21.2154 30.1499 21.5673 29.8232C21.9197 29.4965 22.4924 29.4945 22.847 29.8191L22.9556 29.9274C23.2135 30.1666 23.603 30.239 23.9412 30.1104C24.2821 29.9815 24.5037 29.6751 24.502 29.3358V29.169C24.502 28.7088 24.9069 28.3357 25.4063 28.3357C25.9057 28.3357 26.3106 28.7088 26.3106 29.169V29.3106C26.3089 29.6503 26.5305 29.9567 26.8714 30.0856C27.2096 30.2138 27.5991 30.1418 27.857 29.9021L27.9656 29.8025C28.3175 29.4758 28.8907 29.4737 29.2453 29.798C29.5998 30.1226 29.6016 30.6503 29.2497 30.977L29.1322 31.0771C28.8726 31.3147 28.794 31.6736 28.9331 31.9852C29.073 32.2993 29.406 32.5036 29.7743 32.5019H29.9279C30.4273 32.5019 30.8322 32.875 30.8322 33.3352C30.8322 33.7953 30.4273 34.1684 29.9279 34.1684Z" fill="#FF4B4B"/>
</svg>
