<svg width="55" height="50" viewBox="0 0 55 50" fill="none" xmlns="http://www.w3.org/2000/svg">
<path d="M53.7468 24.1667H33.0624C32.5629 24.1667 32.158 24.5398 32.158 25C32.158 25.4602 32.5629 25.8334 33.0624 25.8334H52.8423V34.1667H48.3202V28.3334C48.3202 27.8731 47.9152 27.5 47.4158 27.5C46.9163 27.5 46.5113 27.8731 46.5113 28.3334V34.1667H22.0918V25.8334H27.5184C28.0178 25.8334 28.4228 25.4602 28.4228 25C28.4228 24.5398 28.0178 24.1667 27.5184 24.1667H21.1874C20.6879 24.1667 20.2829 24.5398 20.2829 25V35C20.2829 35.4602 20.6879 35.8334 21.1874 35.8334H29.3272V37.5H21.1874C20.6879 37.5 20.2829 37.8731 20.2829 38.3334V44.1667H17.5696V43.3334C17.5696 42.8731 17.1647 42.5 16.6652 42.5H13.9519V38.3334C13.9519 37.8731 13.547 37.5 13.0475 37.5C12.548 37.5 12.1431 37.8731 12.1431 38.3334V43.3334C12.1431 43.7936 12.548 44.1667 13.0475 44.1667H15.7608V45.8334H6.71651V44.1667H9.4298C9.92926 44.1667 10.3342 43.7936 10.3342 43.3334V38.3334C10.3342 37.8731 9.92926 37.5 9.4298 37.5C8.93033 37.5 8.52537 37.8731 8.52537 38.3334V42.5H5.81209C5.31262 42.5 4.90766 42.8731 4.90766 43.3334V44.1667H1.28995C0.790482 44.1667 0.385521 44.5398 0.385521 45C0.385521 45.4602 0.790482 45.8334 1.28995 45.8334H4.90766V46.6667C4.90766 47.1269 5.31262 47.5 5.81209 47.5H16.6652C17.1647 47.5 17.5696 47.1269 17.5696 46.6667V45.8334H20.2829V48.3334C20.2829 48.7936 20.6879 49.1667 21.1874 49.1667H53.7468C54.2462 49.1667 54.6512 48.7936 54.6512 48.3334V38.3334C54.6512 37.8731 54.2462 37.5 53.7468 37.5H45.6069V35.8334H53.7468C54.2462 35.8334 54.6512 35.4602 54.6512 35V25C54.6512 24.5398 54.2462 24.1667 53.7468 24.1667ZM52.8423 47.5H22.0918V39.1667H46.5113V45C46.5113 45.4602 46.9163 45.8334 47.4158 45.8334C47.9152 45.8334 48.3202 45.4602 48.3202 45V39.1667H52.8423V47.5ZM43.798 37.5H31.1361V35.8334H43.798V37.5Z" fill="#FF4B4B"/>
<path d="M27.5182 27.5C26.0198 27.5 24.8049 28.6194 24.8049 30C24.8049 31.381 26.0198 32.5 27.5182 32.5C29.0166 32.5 30.2315 31.381 30.2315 30C30.2315 28.6194 29.0166 27.5 27.5182 27.5ZM27.5182 30.8333C27.0188 30.8333 26.6138 30.4602 26.6138 30C26.6138 29.5398 27.0188 29.1667 27.5182 29.1667C28.0177 29.1667 28.4226 29.5398 28.4226 30C28.4226 30.4602 28.0177 30.8333 27.5182 30.8333Z" fill="#FF4B4B"/>
<path d="M32.945 32.5C33.4445 32.5 33.8494 32.1269 33.8494 31.6667V28.3333C33.8494 27.8731 33.4445 27.5 32.945 27.5C32.4455 27.5 32.0406 27.8731 32.0406 28.3333V31.6667C32.0406 32.1269 32.4455 32.5 32.945 32.5Z" fill="#FF4B4B"/>
<path d="M37.4671 31.6667V28.3333C37.4671 27.8731 37.0621 27.5 36.5626 27.5C36.0632 27.5 35.6582 27.8731 35.6582 28.3333V31.6667C35.6582 32.1269 36.0632 32.5 36.5626 32.5C37.0621 32.5 37.4671 32.1269 37.4671 31.6667Z" fill="#FF4B4B"/>
<path d="M41.0847 31.6667V28.3333C41.0847 27.8731 40.6797 27.5 40.1803 27.5C39.6808 27.5 39.2758 27.8731 39.2758 28.3333V31.6667C39.2758 32.1269 39.6808 32.5 40.1803 32.5C40.6797 32.5 41.0847 32.1269 41.0847 31.6667Z" fill="#FF4B4B"/>
<path d="M44.7023 31.6667V28.3333C44.7023 27.8731 44.2973 27.5 43.7979 27.5C43.2984 27.5 42.8934 27.8731 42.8934 28.3333V31.6667C42.8934 32.1269 43.2984 32.5 43.7979 32.5C44.2973 32.5 44.7023 32.1269 44.7023 31.6667Z" fill="#FF4B4B"/>
<path d="M29.3271 42.5C28.8276 42.5 28.4226 42.8732 28.4226 43.3334C28.4226 43.7936 28.0177 44.1667 27.5182 44.1667C27.0188 44.1667 26.6138 43.7936 26.6138 43.3334C26.6138 42.8732 27.0188 42.5 27.5182 42.5C28.0177 42.5 28.4226 42.1269 28.4226 41.6667C28.4226 41.2065 28.0177 40.8334 27.5182 40.8334C26.0198 40.8334 24.8049 41.9528 24.8049 43.3334C24.8049 44.7144 26.0198 45.8334 27.5182 45.8334C29.0166 45.8334 30.2315 44.7144 30.2315 43.3334C30.2315 42.8732 29.8265 42.5 29.3271 42.5Z" fill="#FF4B4B"/>
<path d="M32.945 40.8334C32.4455 40.8334 32.0406 41.2065 32.0406 41.6667V45C32.0406 45.4602 32.4455 45.8334 32.945 45.8334C33.4445 45.8334 33.8494 45.4602 33.8494 45V41.6667C33.8494 41.2065 33.4445 40.8334 32.945 40.8334Z" fill="#FF4B4B"/>
<path d="M36.5626 40.8334C36.0632 40.8334 35.6582 41.2065 35.6582 41.6667V45C35.6582 45.4602 36.0632 45.8334 36.5626 45.8334C37.0621 45.8334 37.4671 45.4602 37.4671 45V41.6667C37.4671 41.2065 37.0621 40.8334 36.5626 40.8334Z" fill="#FF4B4B"/>
<path d="M40.1803 40.8334C39.6808 40.8334 39.2758 41.2065 39.2758 41.6667V45C39.2758 45.4602 39.6808 45.8334 40.1803 45.8334C40.6797 45.8334 41.0847 45.4602 41.0847 45V41.6667C41.0847 41.2065 40.6797 40.8334 40.1803 40.8334Z" fill="#FF4B4B"/>
<path d="M43.7979 40.8334C43.2984 40.8334 42.8934 41.2065 42.8934 41.6667V45C42.8934 45.4602 43.2984 45.8334 43.7979 45.8334C44.2973 45.8334 44.7023 45.4602 44.7023 45V41.6667C44.7023 41.2065 44.2973 40.8334 43.7979 40.8334Z" fill="#FF4B4B"/>
<path d="M7.2403 29.8418C7.35998 29.8906 7.48938 29.9158 7.62009 29.9167C8.03919 29.911 8.39866 29.6404 8.48919 29.2636C8.57928 28.8864 8.37702 28.5019 7.99988 28.3334C3.74845 26.5382 1.42777 22.2572 2.42449 18.047C3.42078 13.8368 7.46553 10.8346 12.1422 10.8334C13.0599 10.833 13.9732 10.9506 14.8555 11.1833C15.306 11.3034 15.7807 11.0861 15.9498 10.6837C18.2259 5.24422 23.9038 1.65942 30.2308 1.66675C37.4371 1.6993 43.6638 6.31356 45.2444 12.7918C45.3252 13.1259 45.6193 13.3802 45.9858 13.4335C49.933 14.0146 52.8384 17.1506 52.8415 20.8334C52.8375 21.0759 52.8194 21.318 52.7872 21.5585C52.754 21.7823 52.8212 22.0094 52.9726 22.1868C53.1245 22.3642 53.348 22.4773 53.5922 22.5001C53.8338 22.5233 54.0753 22.4561 54.2621 22.3133C54.4494 22.1709 54.5664 21.965 54.5872 21.742C54.6269 21.4405 54.6481 21.1374 54.6503 20.8334C54.6689 16.5365 51.4279 12.811 46.8722 11.8918C44.8862 4.91382 38.0602 0.0358877 30.2308 8.03839e-05C23.437 -0.0198577 17.276 3.67073 14.5389 9.40031C13.7515 9.24446 12.9477 9.16593 12.1422 9.16675C6.62028 9.17204 1.84642 12.7174 0.667747 17.6881C-0.510482 22.6588 2.22356 27.7153 7.2403 29.8418Z" fill="#FF4B4B"/>
<path d="M14.8564 30.5087C14.931 30.5205 15.0078 30.5205 15.0825 30.5087C16.1136 30.267 17.1029 29.8938 18.0219 29.4003C18.2299 29.2888 18.3809 29.1057 18.4418 28.8916C18.5028 28.6772 18.4688 28.4497 18.3473 28.2585C18.0961 27.8646 17.5476 27.7307 17.1174 27.9586C16.3384 28.3745 15.5016 28.6914 14.6303 28.9002C14.1308 28.9575 13.7766 29.3775 13.8389 29.8377C13.9011 30.2979 14.3569 30.6242 14.8564 30.5668V30.5087Z" fill="#FF4B4B"/>
<path d="M11.2388 35.8334C11.7383 35.8334 12.1432 35.4602 12.1432 35V21.9169L14.1058 24.6253C14.2722 24.858 14.554 24.9988 14.8565 25C15.0345 25.0021 15.2085 24.9524 15.3538 24.8584C15.7667 24.6041 15.8797 24.091 15.6072 23.7085L11.9895 18.7085C11.9895 18.7085 11.9895 18.7085 11.9441 18.6666C11.7727 18.4697 11.513 18.3549 11.2388 18.3549C10.9646 18.3549 10.7049 18.4697 10.5335 18.6666C10.5335 18.6666 10.5335 18.6666 10.488 18.7085L6.87034 23.7085C6.64953 24.0877 6.77849 24.5593 7.16799 24.797C7.55705 25.0346 8.0786 24.9601 8.37183 24.6253L10.3344 21.9169V35C10.3344 35.4602 10.7393 35.8334 11.2388 35.8334Z" fill="#FF4B4B"/>
<path d="M34.3465 15.1417C33.9319 14.8906 33.3746 14.9948 33.0985 15.3752L31.136 18.0836V8.33339C31.136 7.87319 30.7311 7.50006 30.2316 7.50006C29.7321 7.50006 29.3272 7.87319 29.3272 8.33339V18.0836L27.3646 15.3752C27.2021 15.0965 26.8828 14.9264 26.5397 14.9362C26.1966 14.9459 25.8892 15.1335 25.7457 15.4208C25.6026 15.7081 25.6481 16.0454 25.8631 16.292L29.4808 21.292C29.6491 21.5223 29.9304 21.6602 30.2316 21.6602C30.5328 21.6602 30.8141 21.5223 30.9823 21.292L34.6 16.292C34.8725 15.9095 34.7595 15.396 34.3465 15.1417Z" fill="#FF4B4B"/>
</svg>
