<svg width="31" height="32" viewBox="0 0 31 32" fill="none" xmlns="http://www.w3.org/2000/svg">
<path d="M16.1962 20.2015C16.7612 20.1584 17.2763 19.8761 17.6107 19.4257L22.6924 12.5424C22.8482 12.3313 22.8249 12.0399 22.636 11.8548C22.4471 11.6703 22.1497 11.6474 21.9342 11.7995L14.9078 16.7801C14.4497 17.1066 14.1615 17.6113 14.1175 18.1648C14.0735 18.7184 14.2782 19.2603 14.6782 19.6522C15.0424 20.0096 15.5335 20.2074 16.0443 20.2074C16.0947 20.2074 16.1452 20.2052 16.1962 20.2015ZM15.1998 18.2478C15.2187 18.0048 15.3458 17.783 15.5455 17.6405L19.8316 14.6025L16.7319 18.8008C16.5854 18.9981 16.3591 19.122 16.111 19.1412C15.8641 19.1571 15.6215 19.0731 15.4451 18.9003C15.2703 18.7285 15.1802 18.4903 15.1998 18.2478Z" fill="#FF4B4B"/>
<path d="M28.3539 10.4036C28.3484 10.3925 28.3484 10.3808 28.3425 10.3696C28.3359 10.359 28.3256 10.3531 28.3186 10.343C27.7699 9.42091 27.1207 8.56315 26.3837 7.7857L27.5495 6.64398L28.3169 7.39591L30.6193 5.13959L28.3169 2.88381L26.0141 5.13959L26.7821 5.89205L25.6162 7.03377C24.8227 6.31162 23.9478 5.67509 23.0061 5.13747C22.9958 5.13055 22.9899 5.12045 22.979 5.11407C22.9676 5.10769 22.9557 5.10822 22.9443 5.10237C21.2655 4.15475 19.3795 3.52353 17.3686 3.29221V2.65887H18.1827C18.9312 2.65887 19.5396 2.06275 19.5396 1.32943C19.5396 0.596119 18.9306 0 18.1822 0H13.2974C12.549 0 11.9405 0.596119 11.9405 1.32943C11.9405 2.06275 12.549 2.65887 13.2974 2.65887H14.1115V3.2736C13.5254 3.33475 12.9403 3.42835 12.3617 3.5581C12.0697 3.62351 11.8868 3.90907 11.9541 4.19516C12.0209 4.48126 12.3123 4.661 12.6043 4.59453C13.1036 4.48232 13.6079 4.39777 14.1132 4.34087L14.6955 4.29673C14.8736 4.28344 15.0375 4.27387 15.197 4.26642V5.31774C15.197 5.61181 15.4396 5.84951 15.7398 5.84951C16.0399 5.84951 16.2825 5.61181 16.2825 5.31774V4.27014C18.3238 4.36214 20.2473 4.89923 21.9575 5.78304L21.4224 6.69078C21.2726 6.9455 21.3616 7.27041 21.621 7.41718C21.7062 7.46557 21.7996 7.48844 21.8919 7.48844C22.0797 7.48844 22.262 7.39325 22.3624 7.22255L22.896 6.31694C24.5942 7.37251 26.0369 8.78597 27.1142 10.4499L26.1899 10.9726C25.931 11.1194 25.842 11.4443 25.9923 11.699C26.0933 11.8697 26.2751 11.9649 26.4629 11.9649C26.5552 11.9649 26.6485 11.942 26.7337 11.8937L27.6602 11.3693C28.5748 13.0689 29.1246 14.9843 29.2065 17.0162H28.1346C27.8344 17.0162 27.5918 17.2539 27.5918 17.548C27.5918 17.8421 27.8344 18.0798 28.1346 18.0798H29.2065C29.1246 20.1117 28.5748 22.0271 27.6602 23.7267L26.7337 23.2024C26.4743 23.0556 26.1421 23.1417 25.9923 23.397C25.8425 23.6517 25.9316 23.9766 26.191 24.1234L27.1153 24.6461C26.0379 26.31 24.5953 27.7235 22.897 28.7791L22.3635 27.8735C22.2132 27.6182 21.8805 27.5315 21.6221 27.6788C21.3621 27.8256 21.2731 28.151 21.4235 28.4052L21.9586 29.313C20.2484 30.1968 18.3249 30.7339 16.2836 30.8259V29.7793C16.2836 29.4853 16.041 29.2476 15.7409 29.2476C15.4407 29.2476 15.1981 29.4853 15.1981 29.7793V30.8301C14.3313 30.8009 13.4619 30.6945 12.6059 30.502C12.3139 30.4334 12.0225 30.6153 11.9557 30.9014C11.8884 31.1875 12.0713 31.473 12.3633 31.5384C13.4467 31.7831 14.5533 31.9064 15.6513 31.9064C15.6779 31.9064 15.7034 31.9048 15.73 31.9043C15.7338 31.9043 15.7365 31.9064 15.7398 31.9064C15.7441 31.9064 15.7479 31.9038 15.7523 31.9038C18.3613 31.8862 20.8091 31.196 22.9269 30.0037C22.9437 29.9963 22.9616 29.9926 22.9779 29.983C22.9888 29.9766 22.9947 29.9665 23.005 29.9596C25.1972 28.7078 27.029 26.9152 28.3094 24.769C28.3197 24.7546 28.3327 24.7434 28.3419 24.7275C28.3484 24.7163 28.3479 24.7046 28.3533 24.6935C29.593 22.5876 30.3056 20.1489 30.3056 17.5485C30.3056 14.9482 29.593 12.5094 28.3539 10.4036ZM28.3164 4.38767L29.0839 5.13959L28.3164 5.89205L27.5484 5.13959L28.3164 4.38767ZM15.197 3.20181V1.59532H13.2974C13.1481 1.59532 13.026 1.47567 13.026 1.32943C13.026 1.1832 13.1481 1.06355 13.2974 1.06355H18.1822C18.3314 1.06355 18.4535 1.1832 18.4535 1.32943C18.4535 1.47567 18.3314 1.59532 18.1822 1.59532H16.2825V3.20181C16.0937 3.19437 15.9135 3.19064 15.7398 3.19064C15.7246 3.19064 15.7072 3.19171 15.692 3.19171C15.6785 3.19171 15.6649 3.19064 15.6513 3.19064C15.5623 3.19064 15.4733 3.19649 15.3843 3.19809C15.3213 3.19968 15.2622 3.19915 15.197 3.20181Z" fill="#FF4B4B"/>
<path d="M10.8551 7.44495H8.14138C7.84123 7.44495 7.59863 7.68265 7.59863 7.97672C7.59863 8.27079 7.84123 8.50849 8.14138 8.50849H10.8551C11.1553 8.50849 11.3979 8.27079 11.3979 7.97672C11.3979 7.68265 11.1553 7.44495 10.8551 7.44495Z" fill="#FF4B4B"/>
<path d="M10.855 11.1672H5.42749C5.12735 11.1672 4.88474 11.4049 4.88474 11.699C4.88474 11.9931 5.12735 12.2308 5.42749 12.2308H10.855C11.1551 12.2308 11.3978 11.9931 11.3978 11.699C11.3978 11.4049 11.1551 11.1672 10.855 11.1672Z" fill="#FF4B4B"/>
<path d="M10.855 14.8895H2.71373C2.41359 14.8895 2.17098 15.1272 2.17098 15.4213C2.17098 15.7154 2.41359 15.9531 2.71373 15.9531H10.855C11.1551 15.9531 11.3977 15.7154 11.3977 15.4213C11.3977 15.1272 11.1551 14.8895 10.855 14.8895Z" fill="#FF4B4B"/>
<path d="M10.855 18.6122H0.542751C0.24261 18.6122 0 18.8499 0 19.144C0 19.438 0.24261 19.6757 0.542751 19.6757H10.855C11.1552 19.6757 11.3978 19.438 11.3978 19.144C11.3978 18.8499 11.1552 18.6122 10.855 18.6122Z" fill="#FF4B4B"/>
<path d="M10.8549 22.3345H3.79916C3.49902 22.3345 3.25641 22.5722 3.25641 22.8662C3.25641 23.1603 3.49902 23.398 3.79916 23.398H10.8549C11.1551 23.398 11.3977 23.1603 11.3977 22.8662C11.3977 22.5722 11.1551 22.3345 10.8549 22.3345Z" fill="#FF4B4B"/>
<path d="M10.855 26.0569H7.05576C6.75562 26.0569 6.51301 26.2946 6.51301 26.5887C6.51301 26.8827 6.75562 27.1204 7.05576 27.1204H10.855C11.1552 27.1204 11.3978 26.8827 11.3978 26.5887C11.3978 26.2946 11.1552 26.0569 10.855 26.0569Z" fill="#FF4B4B"/>
</svg>
