<svg width="17" height="19" viewBox="0 0 17 19" fill="none" xmlns="http://www.w3.org/2000/svg">
<path d="M8.60136 10.4336C8.62146 10.4336 8.64157 10.4336 8.66569 10.4336C8.67373 10.4336 8.68177 10.4336 8.68981 10.4336C8.70188 10.4336 8.71796 10.4336 8.73002 10.4336C9.90808 10.4146 10.861 10.0219 11.5646 9.2708C13.1126 7.61616 12.8552 4.77964 12.8271 4.50895C12.7266 2.47688 11.7134 1.50468 10.8771 1.05099C10.2539 0.711679 9.52612 0.528678 8.71394 0.513428H8.68579C8.68177 0.513428 8.67373 0.513428 8.66971 0.513428H8.64559C8.19929 0.513428 7.32278 0.582053 6.48246 1.03574C5.63812 1.48943 4.60882 2.46163 4.50831 4.50895C4.48016 4.77964 4.22284 7.61616 5.7708 9.2708C6.4704 10.0219 7.4233 10.4146 8.60136 10.4336ZM5.58183 4.60427C5.58183 4.59283 5.58585 4.58139 5.58585 4.57377C5.71853 1.84019 7.76506 1.54662 8.64157 1.54662H8.65765C8.66569 1.54662 8.67775 1.54662 8.68981 1.54662C9.7754 1.5695 11.6209 1.98887 11.7455 4.57377C11.7455 4.58521 11.7455 4.59664 11.7496 4.60427C11.7536 4.63096 12.035 7.22347 10.7564 8.58836C10.2498 9.12973 9.57436 9.39661 8.68579 9.40424C8.67775 9.40424 8.67373 9.40424 8.66569 9.40424C8.65765 9.40424 8.65363 9.40424 8.64559 9.40424C7.76104 9.39661 7.08154 9.12973 6.57896 8.58836C5.3044 7.2311 5.57781 4.62714 5.58183 4.60427Z" fill="#949494"/>
<path d="M16.9282 15.1383C16.9282 15.1345 16.9282 15.1307 16.9282 15.1269C16.9282 15.0964 16.9242 15.0659 16.9242 15.0316C16.9001 14.2767 16.8478 12.5115 15.1028 11.9472C15.0908 11.9434 15.0747 11.9396 15.0626 11.9358C13.2493 11.4974 11.7415 10.5061 11.7254 10.4947C11.4802 10.3307 11.1425 10.3879 10.9696 10.6205C10.7967 10.853 10.857 11.1733 11.1022 11.3372C11.1706 11.383 12.7708 12.439 14.7731 12.9271C15.7099 13.2435 15.8145 14.1928 15.8426 15.0621C15.8426 15.0964 15.8426 15.1269 15.8466 15.1574C15.8507 15.5005 15.8265 16.0304 15.7622 16.3354C15.1109 16.6862 12.5577 17.8986 8.67375 17.8986C4.80586 17.8986 2.23665 16.6824 1.58128 16.3316C1.51695 16.0266 1.4888 15.4967 1.49684 15.1536C1.49684 15.1231 1.50086 15.0926 1.50086 15.0583C1.52901 14.189 1.63354 13.2397 2.57036 12.9232C4.57266 12.4352 6.17289 11.3754 6.24124 11.3334C6.4865 11.1695 6.54681 10.8492 6.37393 10.6167C6.20104 10.3841 5.8633 10.3269 5.61804 10.4908C5.60196 10.5023 4.10224 11.4935 2.28087 11.932C2.26479 11.9358 2.25273 11.9396 2.24067 11.9434C0.495692 12.5115 0.443424 14.2767 0.4193 15.0278C0.4193 15.0621 0.4193 15.0926 0.415279 15.1231C0.415279 15.1269 0.415279 15.1307 0.415279 15.1345C0.411258 15.3328 0.407238 16.3507 0.620334 16.8616C0.66054 16.9607 0.732913 17.0446 0.829409 17.1018C0.950029 17.178 3.8409 18.9242 8.67778 18.9242C13.5147 18.9242 16.4055 17.1742 16.5261 17.1018C16.6186 17.0446 16.695 16.9607 16.7352 16.8616C16.9363 16.3545 16.9322 15.3366 16.9282 15.1383Z" fill="#949494"/>
</svg>
